<svg xmlns="http://www.w3.org/2000/svg" viewBox="0 0 56.42 87.38"><defs><style>.cls-1{fill:#fff;}</style></defs><g id="Layer_2" data-name="Layer 2"><g id="Layer_1-2" data-name="Layer 1"><path class="cls-1" d="M27.3,46.07c-.32-.53-.58-1-.87-1.42a79.77,79.77,0,0,0-7.16-9.13c-2.49-2.77-5.27-5.17-7.92-7.73A43.37,43.37,0,0,0,5.45,23,14.18,14.18,0,0,0,.69,20.5.79.79,0,1,1,1,19a2.84,2.84,0,0,1,.85.24,27.36,27.36,0,0,1,2.78,1.34,45.18,45.18,0,0,1,8,6.09q3.12,3,6.28,6l.22.22a84.92,84.92,0,0,1,6.38,7.6c1.06,1.55,2.23,3,3.2,4.63,1.25,2.1,2.39,4.28,3.5,6.48A41.57,41.57,0,0,1,35.84,62a29,29,0,0,1-.54,14.78,29.76,29.76,0,0,1-5.45,9.77c-.93,1.13-2.2,1.12-3.27-.06a32.86,32.86,0,0,1-3.85-6.08,22.15,22.15,0,0,1-2.65-8.94,31.79,31.79,0,0,1,.83-10.78,56.13,56.13,0,0,1,4.87-12.09C26.21,47.75,26.75,47,27.3,46.07Zm.94,1.67c-.21.32-.38.53-.51.76a52.56,52.56,0,0,0-3.94,8.42,35,35,0,0,0-2.27,10A25.06,25.06,0,0,0,22.28,75a29.28,29.28,0,0,0,3.31,7.31,27.79,27.79,0,0,0,2.09,2.85c.47.57.58.53,1.12,0,.12-.12.23-.25.34-.38a29.68,29.68,0,0,0,4.64-8.45A20.88,20.88,0,0,0,35,69a29.61,29.61,0,0,0-1.82-10.73,52.84,52.84,0,0,0-4.31-9.53C28.66,48.4,28.48,48.12,28.24,47.74Z"/><path class="cls-1" d="M35.33,22.86a41.37,41.37,0,0,1-.76,4.28A15.69,15.69,0,0,1,30.09,34a5.2,5.2,0,0,1-1.21.71,1.26,1.26,0,0,1-1.32,0A7.44,7.44,0,0,1,26,33.58,15.52,15.52,0,0,1,21.58,26a21.32,21.32,0,0,1-.09-7.6,38.18,38.18,0,0,1,2.19-7.47q1.82-5,3.62-9.9A1.38,1.38,0,0,1,27.45.6c.23-.22.48-.52.75-.58s.67.2.82.61c.33.9.65,1.8,1,2.7,1.13,3,2.29,6,3.4,9.06a30.42,30.42,0,0,1,1.74,7.5C35.24,20.78,35.26,21.68,35.33,22.86ZM28.22,3.55c-.12.22-.19.33-.24.45-1,2.65-2,5.29-3,7.94a28.28,28.28,0,0,0-2.07,11.52,13.32,13.32,0,0,0,4.35,9.18c.78.75,1.14.72,2,0a7.83,7.83,0,0,0,.89-.84A14.69,14.69,0,0,0,33.46,19a39.29,39.29,0,0,0-2.33-8c-.95-2.32-1.78-4.7-2.67-7A3.41,3.41,0,0,0,28.22,3.55Z"/><path class="cls-1" d="M31.83,42c-.27-.22-.48-.4-.69-.56s-.29-.18-.44-.28a5.91,5.91,0,0,1,.4-.78,55.83,55.83,0,0,1,6-7c2.1-2.16,4.29-4.22,6.44-6.32a44.37,44.37,0,0,1,9.29-7,17,17,0,0,1,2.38-1,1.29,1.29,0,0,1,.58-.09c.35,0,.69.22.67.63a1.92,1.92,0,0,1-.38.79.41.41,0,0,1-.27.13c-1.87.34-3.36,1.56-4.92,2.59a38.78,38.78,0,0,0-5.74,4.7c-1.54,1.51-3.15,2.93-4.72,4.39a4.12,4.12,0,0,0-.37.35c-2,2.29-4.09,4.56-6.11,6.86C33.21,40.2,32.56,41.06,31.83,42Z"/></g></g></svg>